<?xml version="1.0" encoding="UTF-8"?>
<!-- Created with Inkscape (http://www.inkscape.org/) -->
<svg id="SVGRoot" width="674" height="181" version="1.1" viewBox="0 0 674 181" xmlns="http://www.w3.org/2000/svg" xmlns:cc="http://creativecommons.org/ns#" xmlns:dc="http://purl.org/dc/elements/1.1/" xmlns:osb="http://www.openswatchbook.org/uri/2009/osb" xmlns:rdf="http://www.w3.org/1999/02/22-rdf-syntax-ns#" xmlns:xlink="http://www.w3.org/1999/xlink">
 <title>cyberpost</title>
 <defs>
  <marker id="marker12157" overflow="visible" orient="auto">
   <path transform="matrix(.4 0 0 .4 4 0)" d="m0 0 5-5-17.5 5 17.5 5z" fill="#0b6a9c" fill-rule="evenodd"/>
  </marker>
  <marker id="marker12083" overflow="visible" orient="auto">
   <path transform="matrix(.4 0 0 .4 4 0)" d="m0 0 5-5-17.5 5 17.5 5z" fill="#0b6a9c" fill-rule="evenodd"/>
  </marker>
  <marker id="marker11278" overflow="visible" orient="auto">
   <path transform="matrix(.4 0 0 .4 4 0)" d="m0 0 5-5-17.5 5 17.5 5z" fill="#0b6a9c" fill-rule="evenodd"/>
  </marker>
  <marker id="Arrow1Sstart" overflow="visible" orient="auto">
   <path transform="matrix(.2 0 0 .2 1.2 0)" d="m0 0 5-5-17.5 5 17.5 5z" fill="#299959" fill-rule="evenodd"/>
  </marker>
  <marker id="marker10329" overflow="visible" orient="auto">
   <path transform="matrix(.3 0 0 .3 -.69 0)" d="m8.7186 4.0337-10.926-4.0177 10.926-4.0177c-1.7455 2.3721-1.7354 5.6175-6e-7 8.0354z" fill="#299959" fill-rule="evenodd"/>
  </marker>
  <marker id="Arrow2Sstart" overflow="visible" orient="auto">
   <path transform="matrix(.3 0 0 .3 -.69 0)" d="m8.7186 4.0337-10.926-4.0177 10.926-4.0177c-1.7455 2.3721-1.7354 5.6175-6e-7 8.0354z" fill="#299959" fill-rule="evenodd"/>
  </marker>
  <marker id="marker5282" overflow="visible" orient="auto">
   <path transform="matrix(.8 0 0 .8 10 0)" d="m0 0 5-5-17.5 5 17.5 5z" fill="#0b6a9c" fill-rule="evenodd"/>
  </marker>
 </defs>
 <metadata>
  <rdf:RDF>
   <cc:Work rdf:about="">
    <dc:format>image/svg+xml</dc:format>
    <dc:type rdf:resource="http://purl.org/dc/dcmitype/StillImage"/>
    <dc:title>cyberpost</dc:title>
   </cc:Work>
  </rdf:RDF>
 </metadata>
 <g transform="translate(0,-419)">
  <g transform="matrix(2.415 -.016796 .016796 2.415 -42.69 44.21)" fill="#299959" aria-label="Cyber">
   <path d="m52.819 206.67q0.55036-0.98486 1.6511-1.3035 1.1007-0.31864 2.0856 0.2607 1.0138 0.55036 1.3035 1.6511 0.31863 1.1007-0.23173 2.0856-2.7518 4.8954-7.6182 7.7341-4.8374 2.8387-10.428 2.8387-8.5741 0-14.628-6.054-6.054-6.054-6.054-14.599 0-8.5741 6.054-14.628t14.628-6.054q5.5905 0 10.428 2.8387 4.8664 2.8387 7.6182 7.7341 0.55036 0.98486 0.23173 2.0856-0.28966 1.1007-1.3035 1.6511-0.98486 0.57932-2.0856 0.26069-1.1007-0.31862-1.6511-1.3035-2.0277-3.6208-5.5905-5.7064-3.505-2.0566-7.6472-2.0566-6.2857 0-10.718 4.4608-4.4609 4.4319-4.4609 10.718 0 6.2568 4.4609 10.689 4.4319 4.4609 10.718 4.4609 4.1422 0 7.6472-2.0566 3.5629-2.0856 5.5905-5.7064z" marker-end="url(#Arrow2Sstart)" marker-mid="url(#marker10329)" marker-start="url(#Arrow1Sstart)" stroke-width="1.4831"/>
   <path d="m84.357 218.89q0 4.6094-3.2617 7.8906-3.2617 3.2617-7.8906 3.2617-3.3008 0-6.0547-1.7969-2.7734-1.7969-4.1211-4.8242-0.3125-0.6836-0.03906-1.4062 0.27344-0.72266 0.97656-1.0352t1.4062-0.0391q0.72266 0.27344 1.0352 0.97656 0.89844 2.0117 2.7539 3.2227 1.8359 1.1914 4.043 1.1914 3.0859 0 5.2539-2.1875 2.1875-2.168 2.1875-5.2539v-1.1719q-3.1836 2.8516-7.4414 2.8516-4.6094 0-7.8906-3.2812-3.2617-3.2617-3.2617-7.8711v-9.2969q0-0.78125 0.54688-1.3281 0.54688-0.52734 1.3086-0.52734 0.78125 0 1.3086 0.52734 0.54688 0.54688 0.54688 1.3281v9.2969q0 3.0664 2.1875 5.2539 2.168 2.168 5.2539 2.168 3.0859 0 5.2539-2.168 2.1875-2.1875 2.1875-5.2539v-9.2969q0-0.78125 0.54688-1.3281 0.52734-0.52734 1.3086-0.52734 0.76172 0 1.3086 0.52734 0.54688 0.54688 0.54688 1.3281z"/>
   <path d="m99.455 220.57q-4.6094 0-7.8906-3.2812-3.2617-3.2617-3.2617-7.8711v-14.883q0-0.76172 0.54688-1.3086 0.54688-0.54687 1.3086-0.54687 0.78125 0 1.3086 0.54687 0.54688 0.54688 0.54688 1.3086v6.5625q3.1836-2.832 7.4414-2.832 4.6289 0 7.8906 3.2617 3.2617 3.2617 3.2617 7.8906 0 4.6094-3.2617 7.8711-3.2617 3.2812-7.8906 3.2812zm-5.2539-5.8984q2.168 2.168 5.2539 2.168 3.0859 0 5.2539-2.168 2.1875-2.1875 2.1875-5.2539 0-3.0859-2.1875-5.2734-2.168-2.168-5.2539-2.168-3.0859 0-5.2539 2.168-2.1875 2.1875-2.1875 5.2734 0 3.0664 2.1875 5.2539z"/>
   <path d="m129.61 215.14q0.60547-0.48828 1.3672-0.41016 0.76171 0.0781 1.25 0.66406 0.48828 0.58594 0.42968 1.3672-0.0781 0.76172-0.66406 1.25-1.6992 1.2305-3.7305 1.8945t-4.3555 0.66406q-4.8047 0-8.0859-3.2812-3.2617-3.2617-3.2617-7.8711 0-4.6289 3.2617-7.8906 3.2812-3.2617 7.8906-3.2617 4.6289 0 7.8906 3.2617 3.2617 3.2617 3.2617 7.8906 0 0.76172-0.54687 1.3086-0.54688 0.54688-1.3086 0.54688h-16.504q0.50781 1.9531 1.9531 3.3984 2.168 2.168 5.4492 2.168 1.7188 0 3.1055-0.42969t2.5977-1.2695zm-11.152-10.996q-1.4453 1.4453-1.9531 3.3984h14.414q-0.50781-1.9531-1.9531-3.3984-2.168-2.168-5.2539-2.168t-5.2539 2.168z"/>
   <path d="m157.4 208.15q0 0.76172-0.54688 1.3086-0.54687 0.54688-1.3086 0.54688-0.78125 0-1.3281-0.54688-0.52734-0.54687-0.52734-1.3086 0-2.5586-1.8164-4.3555-1.7969-1.8164-4.3555-1.8164-2.5586 0-4.3555 1.8164-1.8164 1.7969-1.8164 4.3555v10.566q0 0.76171-0.52734 1.3086-0.54688 0.54687-1.3281 0.54687-0.76172 0-1.3086-0.54687-0.54688-0.54688-0.54688-1.3086v-10.566q0-4.1016 2.8906-6.9922 2.8906-2.8906 6.9922-2.8906 4.1016 0 6.9922 2.8906 2.8906 2.8906 2.8906 6.9922z"/>
  </g>
  <g transform="matrix(9.7675 0 0 9.7675 -2036.8 -2942.4)" fill="#0b6a9c" stroke-width=".10021" style="paint-order:markers fill stroke" aria-label="ost">
   <path d="m264.34 352.48q-0.74219 0-1.2636 0.52141-0.52611 0.52611-0.52611 1.2683 0 0.73749 0.52611 1.2636 0.52142 0.52141 1.2636 0.52141t1.2636-0.52141q0.52611-0.52611 0.52611-1.2636 0-0.74219-0.52611-1.2683-0.52141-0.52141-1.2636-0.52141zm-1.8978-0.10805q0.78917-0.78446 1.8978-0.78446 1.1133 0 1.8978 0.78446 0.78447 0.78447 0.78447 1.8978 0 1.1086-0.78447 1.893-0.78447 0.78917-1.8978 0.78917-1.1086 0-1.8978-0.78917-0.78447-0.78446-0.78447-1.893 0-1.1133 0.78447-1.8978z"/>
   <path d="m272.06 352.38q0.13153 0.12213 0.13623 0.30064 0 0.1738-0.12213 0.30533-0.12214 0.12683-0.29594 0.13153-0.1785 5e-3 -0.30533-0.11744-0.27715-0.26305-0.66703-0.40398-0.40868-0.14562-0.88782-0.15031v5e-3h-5e-3q-0.67643 0-1.1227 0.23957-0.38049 0.20669-0.38049 0.50732 5e-3 0.3664 0.34291 0.50732 0.3523 0.14562 1.1744 0.15032 1.0334 9e-3 1.4609 0.16911 0.87842 0.32881 0.87842 1.3247 0 0.75158-0.7234 1.1978-0.63885 0.39928-1.6018 0.40867-0.63885 5e-3 -1.2072-0.20199-0.58248-0.21138-1.0146-0.61066-0.13153-0.11744-0.13623-0.29594-9e-3 -0.1785 0.11274-0.30533 0.11743-0.13153 0.29594-0.14092 0.1785-5e-3 0.30533 0.11273 0.31003 0.28655 0.7281 0.43686 0.42746 0.15502 0.91129 0.15032 0.71401-5e-3 1.1556-0.28184 0.31472-0.1926 0.31472-0.46974 0-0.40398-0.31472-0.52142-0.29124-0.11273-1.1697-0.11743-0.99115-9e-3 -1.4938-0.21139-0.87372-0.357-0.87372-1.3012 5e-3 -0.80795 0.82674-1.2589 0.64355-0.34761 1.536-0.34761 0.63416 5e-3 1.179 0.20199 0.559 0.20198 0.96297 0.58717z"/>
   <path d="m273.03 350.69q0-0.1832 0.13153-0.31472 0.13152-0.13153 0.31472-0.13153t0.31473 0.13153q0.13153 0.13152 0.13153 0.31472v0.89251h2.7856q0.1879 0 0.31473 0.13153 0.13152 0.13152 0.13152 0.31942 0 0.1832-0.13152 0.31473-0.12683 0.13153-0.31473 0.13153h-2.7856v2.1796q0 0.57779 0.40867 0.98646 0.41337 0.41337 0.99115 0.41337 0.3664 0 0.67643-0.1738 0.31942-0.1785 0.51202-0.48853 0.0986-0.15502 0.27715-0.19729 0.1785-0.0423 0.33821 0.0517 0.15501 0.0986 0.19729 0.28184 0.0423 0.1785-0.0564 0.33352-0.31003 0.50732-0.83144 0.79386-0.52141 0.29124-1.1133 0.29124-0.94887 0-1.6206-0.67173-0.67173-0.66703-0.67173-1.6206z"/>
  </g>
  <g transform="matrix(1.0666 0 0 1.0666 -56.119 219.05)">
   <g transform="matrix(.81905 0 0 .81905 327.52 170.57)">
    <path id="backgroundrect" d="m0 0h800v600h-800z" fill="none"/>
    <g class="currentLayer">
     <title>Layer 1</title>
     <g class="">
      <path d="m219.8 56.449-62.23 54.837-62.244-54.838c-2.4784-2.1835-6.2562-1.9435-8.4389 0.53331-2.1819 2.4776-1.9443 6.2554 0.53411 8.4389l66.197 58.321c1.1296 0.99488 2.5414 1.4923 3.9524 1.4923 1.411 0 2.8236-0.49744 3.9532-1.4931 21.578-18.957 43.015-37.773 66.183-58.321 2.4768-2.1827 2.7152-5.9613 0.53252-8.4389-2.1843-2.4752-5.9613-2.7144-8.4397-0.53172" fill="#0b6a9c" stroke-width="0" style="paint-order:markers fill stroke"/>
      <path d="m235.71 31.041h-156.3c-9.8898 0-17.936 8.0459-17.936 17.936v94.866c0 9.8906 8.0467 17.936 17.936 17.936h156.3c9.8898 0 17.936-8.0459 17.936-17.936v-94.866c0-9.8898-8.0467-17.936-17.936-17.936zm5.9788 112.8c0 3.2963-2.6817 5.9788-5.9788 5.9788h-156.3c-3.2971 0-5.9788-2.6825-5.9788-5.9788v-94.866c0-3.2963 2.6817-5.9788 5.9788-5.9788h156.3c3.2971 0 5.9788 2.6825 5.9788 5.9788z" fill="#0b6a9c" marker-end="url(#marker5282)" marker-mid="url(#marker5282)" marker-start="url(#marker5282)" stroke-width="1.2209" style="paint-order:stroke fill markers"/>
     </g>
     <path class="" d="m2.1918 109.41" color="#000000" fill="" stroke="#000" stroke-dashoffset=""/>
    </g>
   </g>
   <path d="m382.34 212.4h1.0102c2.5183 0 4.5475 2.9394 4.5457 6.5906l-0.0631 128.24c-2e-3 3.6512-1.9642 6.4991-4.4826 6.4991h-1.0102c-2.5183 0-4.5457-2.9394-4.5457-6.5906v-128.15c0-3.6512 2.0274-6.5906 4.5457-6.5906z" fill="#0b6a9c" marker-end="url(#marker12157)" marker-mid="url(#marker12083)" marker-start="url(#marker11278)" stroke-width="1.206" style="paint-order:stroke markers fill"/>
  </g>
 </g>
</svg>
