<?xml version="1.0" encoding="UTF-8"?>
<svg width="200px" height="200px" viewBox="0 0 200 200" version="1.1" xmlns="http://www.w3.org/2000/svg" xmlns:xlink="http://www.w3.org/1999/xlink">
    <!-- Generator: Sketch 49.2 (51160) - http://www.bohemiancoding.com/sketch -->
    <title>email-mailgun</title>
    <desc>Created with Sketch.</desc>
    <defs></defs>
    <g id="email-mailgun" stroke="none" stroke-width="1" fill="none" fill-rule="evenodd">
        <g id="Mailgun_Secondary" transform="translate(10.000000, 75.000000)">
            <path d="M127.065969,21.0632071 C130.552517,21.0632071 132.944633,23.8036971 132.944633,27.7396437 C132.944633,31.8251225 130.602628,34.5648107 127.114477,34.5648107 C123.577817,34.5648107 121.286726,31.9245434 121.286726,27.8390646 C121.286726,23.7539866 123.577817,21.0632071 127.065969,21.0632071 Z M137.577728,17.2767929 L132.744989,17.2767929 L132.744989,19.6685078 C131.051626,17.7755011 128.759733,16.7287751 126.167973,16.7287751 C120.488151,16.7287751 116.354566,21.4620935 116.354566,27.9889978 C116.354566,34.266147 120.488151,38.9004454 126.119465,38.9004454 C128.759733,38.9004454 130.751359,38.0028508 132.744989,35.9097996 L132.744989,38.8487305 C132.744989,43.2344766 131.001514,45.3776392 127.414343,45.3776392 C125.471225,45.3776392 123.577817,44.4295323 122.731537,42.9346102 C122.232428,42.0879287 122.082895,41.2913586 121.933363,39.4973719 L117.201247,39.4973719 C117.249755,45.7745212 121.136392,49.7104677 127.364232,49.7104677 C130.951804,49.7104677 134.041069,48.2664588 135.784543,45.6755011 C137.180045,43.6826726 137.577728,41.8389755 137.577728,37.7542984 L137.577728,17.2767929 Z" id="Fill-1" fill="#AF252A"></path>
            <path d="M44.2655679,17.2767929 L44.2655679,38.2522049 L49.0570156,38.2522049 L49.0570156,27.44098 C49.0570156,23.0063252 50.2424499,21.0632071 52.9584855,21.0632071 C55.1325167,21.0632071 56.1696214,22.8567929 56.1696214,26.643608 L56.1696214,38.2522049 L60.961069,38.2522049 L60.961069,27.44098 C60.961069,22.9562138 62.1469042,21.0632071 64.8633408,21.0632071 C67.1844989,21.0632071 68.0736748,22.6086414 68.0736748,26.5942984 L68.0736748,38.2522049 L72.8647216,38.2522049 L72.8647216,25.2986192 C72.8647216,19.6685078 70.4445434,16.7287751 65.8010245,16.7287751 C63.2333185,16.7287751 61.1085969,17.8248107 59.6269042,19.8180401 C58.3428508,17.8248107 56.3668597,16.7287751 54.0461024,16.7287751 C51.9710913,16.7287751 50.8846771,17.2767929 49.0570156,19.2199109 L49.0570156,17.2767929 L44.2655679,17.2767929" id="Fill-2" fill="#5D5E5E"></path>
            <path d="M85.327216,21.0632071 C88.865078,21.0632071 91.3057016,23.8534076 91.3057016,27.7889532 C91.3057016,31.8251225 88.865078,34.5648107 85.327216,34.5648107 C81.9388864,34.5648107 79.4978619,31.7253007 79.4978619,27.7889532 C79.4978619,23.9035189 81.9889978,21.0632071 85.327216,21.0632071 Z M91.0062361,17.2767929 L91.0062361,19.7182183 C88.9135857,17.5762584 87.1208018,16.7287751 84.4801336,16.7287751 C78.8500223,16.7287751 74.5657016,21.4123831 74.5657016,27.6398218 C74.5657016,34.2160356 78.7506013,38.9004454 84.5799555,38.9004454 C87.1208018,38.9004454 88.7648552,38.1519822 91.0062361,36.0593318 L91.0062361,38.2522049 L95.8389755,38.2522049 L95.8389755,17.2767929 L91.0062361,17.2767929 Z" id="Fill-3" fill="#5D5E5E"></path>
            <g id="Group-7" transform="translate(98.619154, 0.000000)" fill="#5D5E5E">
                <path d="M3.51260579,5.60766147 C1.71942094,5.60766147 0.324320713,7.00316258 0.324320713,8.74663697 C0.324320713,10.4901114 1.76953229,11.934922 3.46329621,11.934922 C5.20757238,11.934922 6.65158129,10.4901114 6.65158129,8.74663697 C6.65158129,7.00316258 5.25608018,5.60766147 3.51260579,5.60766147 Z M1.0711804,38.2522049 L5.9047216,38.2522049 L5.9047216,17.2767929 L1.0711804,17.2767929 L1.0711804,38.2522049 Z" id="Fill-4"></path>
                <polygon id="Fill-6" points="10.3377728 38.2522049 15.1705122 38.2522049 15.1705122 0.29545657 10.3377728 0.29545657"></polygon>
            </g>
            <path d="M145.316927,17.2767929 L140.483385,17.2767929 L140.483385,29.4334076 C140.483385,32.7219154 141.081514,34.515902 142.675056,36.2597773 C144.370022,38.0028508 146.661114,38.9004454 149.401604,38.9004454 C152.191403,38.9004454 154.483296,38.0028508 156.176659,36.2597773 C157.771804,34.515902 158.36833,32.7219154 158.36833,29.4334076 L158.36833,17.2767929 L153.536392,17.2767929 L153.536392,29.3339866 C153.536392,32.9211581 152.241514,34.5648107 149.401604,34.5648107 C146.611804,34.5648107 145.316927,32.9211581 145.316927,29.3339866 L145.316927,17.2767929" id="Fill-8" fill="#AF252A"></path>
            <path d="M161.597506,17.2767929 L161.597506,38.2522049 L166.431448,38.2522049 L166.431448,28.1381292 C166.431448,22.9562138 167.627305,21.0632071 170.8649,21.0632071 C173.855145,21.0632071 174.800846,22.4089978 174.800846,26.5441871 L174.800846,38.2522049 L179.633586,38.2522049 L179.633586,25.3980401 C179.633586,19.5185746 177.19216,16.7287751 172.060356,16.7287751 C169.768864,16.7287751 168.324855,17.3766147 166.431448,19.2199109 L166.431448,17.2767929 L161.597506,17.2767929" id="Fill-9" fill="#AF252A"></path>
            <path d="M19.5746993,22.9510022 C21.4460579,22.9510022 22.963029,24.4675724 22.963029,26.3385301 C22.963029,28.2098886 21.4460579,29.7268597 19.5746993,29.7268597 C17.7037416,29.7268597 16.1867706,28.2094878 16.1867706,26.3385301 C16.1867706,24.4675724 17.7037416,22.9510022 19.5746993,22.9510022 Z M8.03064588,26.3385301 C8.03064588,19.9627617 13.198931,14.7944766 19.5746993,14.7944766 C25.9508686,14.7944766 31.1187528,19.9627617 31.1187528,26.3385301 C31.1187528,26.7606682 31.0963029,27.1767929 31.0522049,27.5865033 C30.9644098,28.711804 31.790245,29.5705122 32.9087305,29.5705122 C34.806147,29.5705122 35.0085969,27.1238753 35.0085969,26.3385301 C35.0085969,17.8143875 28.098441,10.9046325 19.5746993,10.9046325 C11.0505568,10.9046325 4.14080178,17.8143875 4.14080178,26.3385301 C4.14080178,34.8622717 11.0505568,41.7720267 19.5746993,41.7720267 C24.101559,41.7720267 28.1730067,39.824098 30.9964811,36.72 L34.1691314,39.3843207 C30.5855679,43.3908241 25.3743875,45.9140312 19.5746993,45.9140312 C8.76387528,45.9140312 0,37.1493541 0,26.3385301 C0,15.527706 8.76387528,6.76383073 19.5746993,6.76383073 C30.3859243,6.76383073 39.1497996,15.527706 39.1497996,26.3385301 C39.1497996,30.6841871 37.0804009,34.2128285 32.9247661,34.2128285 C31.0955011,34.2128285 29.9838307,33.3749666 29.376882,32.4396882 C27.337951,35.7073497 23.7110913,37.8829844 19.5746993,37.8829844 C13.198931,37.8829844 8.03064588,32.7138976 8.03064588,26.3385301 Z M19.5746993,18.9352784 C15.4864143,18.9352784 12.1714477,22.2494432 12.1714477,26.3385301 C12.1714477,30.427216 15.4864143,33.7421826 19.5746993,33.7421826 C23.6633853,33.7421826 26.9783519,30.427216 26.9783519,26.3385301 C26.9783519,22.2494432 23.6633853,18.9352784 19.5746993,18.9352784 Z" id="Fill-10" fill="#AF252A"></path>
        </g>
    </g>
</svg>